<svg width="99" height="80" viewBox="0 0 99 80" fill="none" xmlns="http://www.w3.org/2000/svg">
<g clip-path="url(#clip0_26_1613)">
<path d="M85.593 0H7.9653C3.84847 0 0.5 3.34847 0.5 7.46529V64.194C0.5 68.3108 3.84847 71.6593 7.9653 71.6593H81.1151C81.9402 71.6593 82.6078 70.9896 82.6078 70.1666C82.6078 69.3437 81.9402 68.674 81.1151 68.674H7.9653C5.49646 68.674 3.48738 66.6649 3.48738 64.1961V14.9285H90.0731V29.857C90.0731 30.682 90.7427 31.3496 91.5657 31.3496C92.3886 31.3496 93.0583 30.6799 93.0583 29.857V7.46529C93.0583 3.34847 89.7099 0 85.593 0ZM90.0731 11.9432H3.48528V7.46529C3.48528 4.99646 5.49436 2.98738 7.9632 2.98738H85.593C88.0619 2.98738 90.071 4.99646 90.071 7.46529V11.9432H90.0731Z" fill="black"/>
<path d="M9.45846 8.95793C10.2828 8.95793 10.9511 8.28966 10.9511 7.4653C10.9511 6.64093 10.2828 5.97266 9.45846 5.97266C8.6341 5.97266 7.96582 6.64093 7.96582 7.4653C7.96582 8.28966 8.6341 8.95793 9.45846 8.95793Z" fill="black"/>
<path d="M16.9214 8.95793C17.7457 8.95793 18.414 8.28966 18.414 7.4653C18.414 6.64093 17.7457 5.97266 16.9214 5.97266C16.097 5.97266 15.4287 6.64093 15.4287 7.4653C15.4287 8.28966 16.097 8.95793 16.9214 8.95793Z" fill="black"/>
<path d="M24.3867 8.95793C25.211 8.95793 25.8793 8.28966 25.8793 7.4653C25.8793 6.64093 25.211 5.97266 24.3867 5.97266C23.5623 5.97266 22.894 6.64093 22.894 7.4653C22.894 8.28966 23.5623 8.95793 24.3867 8.95793Z" fill="black"/>
<path d="M25.5708 35.3909C25.8626 35.6827 26.2447 35.8275 26.6268 35.8275C27.0089 35.8275 27.391 35.6806 27.6828 35.3909L31.1068 31.9668L34.5309 35.3909C34.8227 35.6827 35.2048 35.8275 35.5868 35.8275C35.9689 35.8275 36.351 35.6806 36.6428 35.3909C37.2264 34.8072 37.2264 33.8646 36.6428 33.2789L33.2188 29.8549L36.6428 26.4308C37.2264 25.8472 37.2264 24.9046 36.6428 24.3189C36.0592 23.7332 35.1166 23.7353 34.5309 24.3189L31.1068 27.7429L27.6828 24.3189C27.0992 23.7353 26.1565 23.7353 25.5708 24.3189C24.9851 24.9025 24.9872 25.8451 25.5708 26.4308L28.9949 29.8549L25.5708 33.2789C24.9893 33.8625 24.9893 34.8051 25.5708 35.3909Z" fill="black"/>
<path d="M56.9204 35.3909C57.2122 35.6827 57.5943 35.8275 57.9764 35.8275C58.3585 35.8275 58.7406 35.6806 59.0324 35.3909L62.4564 31.9668L65.8805 35.3909C66.1723 35.6827 66.5544 35.8275 66.9364 35.8275C67.3185 35.8275 67.7006 35.6806 67.9924 35.3909C68.576 34.8072 68.576 33.8646 67.9924 33.2789L64.5684 29.8549L67.9924 26.4308C68.576 25.8472 68.576 24.9046 67.9924 24.3189C67.4088 23.7332 66.4662 23.7353 65.8805 24.3189L62.4564 27.7429L59.0324 24.3189C58.4488 23.7353 57.5062 23.7353 56.9204 24.3189C56.3347 24.9025 56.3368 25.8451 56.9204 26.4308L60.3445 29.8549L56.9204 33.2789C56.3389 33.8625 56.3389 34.8051 56.9204 35.3909Z" fill="black"/>
<path d="M18.6655 57.5579C19.1232 58.2423 20.0469 58.4291 20.7355 57.9715C36.5562 47.4243 57.0018 47.4243 72.8225 57.9715C73.0765 58.1415 73.3642 58.2213 73.6476 58.2213C74.1304 58.2213 74.6028 57.9883 74.8904 57.5579C75.348 56.8735 75.1612 55.9435 74.4768 55.4879C57.6505 44.269 35.9033 44.269 19.077 55.4879C18.3905 55.9456 18.2058 56.8714 18.6613 57.5579H18.6655Z" fill="black"/>
<path d="M95.8966 37.1376C94.4753 35.3573 92.3529 34.335 90.073 34.335C87.7931 34.335 85.6727 35.3552 84.2494 37.1376C82.8281 38.9178 82.3012 41.2145 82.8071 43.4377L88.6181 69.0037C88.7735 69.6838 89.3781 70.1646 90.073 70.1646C90.7678 70.1646 91.3746 69.6817 91.5278 69.0037L97.3388 43.4377C97.8427 41.2145 97.3178 38.9199 95.8966 37.1376Z" fill="black"/>
<path d="M90.0733 71.6572C87.7724 71.6572 85.9019 73.5278 85.9019 75.8286C85.9019 78.1295 87.7724 80.0001 90.0733 80.0001C92.3742 80.0001 94.2447 78.1295 94.2447 75.8286C94.2447 73.5278 92.3742 71.6572 90.0733 71.6572Z" fill="black"/>
</g>
<defs>
<clipPath id="clip0_26_1613">
<rect width="98" height="80.0001" fill="white" transform="translate(0.5)"/>
</clipPath>
</defs>
</svg>
