<svg width="14" height="15" viewBox="0 0 14 15" fill="none" xmlns="http://www.w3.org/2000/svg">
<g clip-path="url(#clip0_18_4513)">
<path d="M7 0.9375C3.3775 0.9375 0.4375 3.8775 0.4375 7.5C0.4375 11.1225 3.3775 14.0625 7 14.0625C10.6225 14.0625 13.5625 11.1225 13.5625 7.5C13.5625 3.8775 10.6225 0.9375 7 0.9375ZM7 11.4375C6.51875 11.4375 6.125 11.0437 6.125 10.5625C6.125 10.0813 6.51875 9.6875 7 9.6875C7.48125 9.6875 7.875 10.0813 7.875 10.5625C7.875 11.0437 7.48125 11.4375 7 11.4375ZM8.00188 4.65188L7.70875 8.16062C7.67813 8.52813 7.37187 8.8125 7 8.8125C6.62813 8.8125 6.32188 8.52813 6.29125 8.16062L5.99813 4.65188C5.95 4.06562 6.40938 3.5625 7 3.5625C7.56 3.5625 8.00625 4.0175 8.00625 4.56875C8.00625 4.595 8.00625 4.62562 8.00188 4.65188Z" fill="#FF1A1A"/>
</g>
<defs>
<clipPath id="clip0_18_4513">
<rect width="14" height="14" fill="white" transform="translate(0 0.5)"/>
</clipPath>
</defs>
</svg>
