<svg width="76" height="66" viewBox="0 0 76 66" fill="none" xmlns="http://www.w3.org/2000/svg">
<g clip-path="url(#clip0_24_1670)">
<path d="M70.3202 0H5.49745C2.73444 0 0.5 2.23444 0.5 4.99745L0.536039 58.2876C0.536039 62.5402 3.99581 66 8.26047 66H67.5692C71.8218 66 75.2816 62.5402 75.2816 58.2876L75.3176 4.99745C75.3056 2.23444 73.0712 0 70.3202 0Z" fill="black"/>
<path d="M67.5573 62.3962H8.24862C5.97814 62.3962 4.14014 60.5461 4.14014 58.2877V16.0977H71.6778V58.2877C71.6778 60.5582 69.8398 62.3962 67.5693 62.3962H67.5573Z" fill="white"/>
<path d="M5.49752 3.604H70.3202C71.0891 3.604 71.7138 4.22869 71.7138 4.99752V12.4937H4.104V4.99752C4.104 4.22869 4.72869 3.604 5.49752 3.604Z" fill="white"/>
<path d="M52.0963 9.82639C53.0814 9.82639 53.8742 9.03352 53.8742 8.04845C53.8742 7.06337 53.0814 6.27051 52.0963 6.27051C51.1112 6.27051 50.3184 7.06337 50.3184 8.04845C50.3184 9.03352 51.1112 9.82639 52.0963 9.82639Z" fill="black"/>
<path d="M58.6676 9.82639C59.6527 9.82639 60.4455 9.03352 60.4455 8.04845C60.4455 7.06337 59.6527 6.27051 58.6676 6.27051C57.6825 6.27051 56.8896 7.06337 56.8896 8.04845C56.8896 9.03352 57.6825 9.82639 58.6676 9.82639Z" fill="black"/>
<path d="M65.2267 9.82639C66.2117 9.82639 67.0046 9.03352 67.0046 8.04845C67.0046 7.06337 66.2117 6.27051 65.2267 6.27051C64.2416 6.27051 63.4487 7.06337 63.4487 8.04845C63.4487 9.03352 64.2416 9.82639 65.2267 9.82639Z" fill="black"/>
<path d="M8.8132 9.85051H36.7917C37.7888 9.85051 38.5937 9.04564 38.5937 8.04855C38.5937 7.05146 37.7888 6.24658 36.7917 6.24658H8.8132C7.81611 6.24658 7.01123 7.05146 7.01123 8.04855C7.01123 9.04564 7.81611 9.85051 8.8132 9.85051Z" fill="black"/>
<path d="M53.5859 36.8921L39.7828 24.3384C38.7137 23.3533 37.0799 23.3533 36.0107 24.3384L22.3278 36.772C21.5229 37.4687 21.1505 38.5499 21.3667 39.5951C21.655 40.8684 22.7843 41.7694 24.0937 41.7574H24.7664C25.0307 41.7574 25.247 41.9737 25.247 42.2379V52.0887C25.247 53.6384 26.4963 54.8877 28.046 54.8877H32.8753C33.7282 54.8877 34.425 54.191 34.425 53.3381V47.6799C34.3889 45.8419 35.7224 44.2682 37.5364 44.0159C39.4465 43.8117 41.1643 45.2052 41.3565 47.1153C41.3685 47.2354 41.3806 47.3555 41.3806 47.4757V53.3501C41.3806 54.203 42.0773 54.8998 42.9303 54.8998H47.7595C49.3092 54.8998 50.5586 53.6504 50.5586 52.1007V42.25C50.5586 41.9857 50.7748 41.7694 51.0391 41.7694H51.7118C53.2615 41.7694 54.5109 40.5201 54.5109 38.9704C54.5109 38.1775 54.1745 37.4327 53.5979 36.9041L53.5859 36.8921Z" fill="black"/>
</g>
<defs>
<clipPath id="clip0_24_1670">
<rect width="75" height="66" fill="white" transform="translate(0.5)"/>
</clipPath>
</defs>
</svg>
