<svg width="12" height="12" viewBox="0 0 12 12" fill="none" xmlns="http://www.w3.org/2000/svg">
<path fill-rule="evenodd" clip-rule="evenodd" d="M3.89524 0.918663C4.56253 0.642262 5.27773 0.5 6 0.5C7.73562 0.5 9.28763 1.30478 10.2778 2.56457V1.11111H11.5V4.98148H7.62963V3.75926H9.61803C8.89591 2.54172 7.54676 1.72222 6 1.72222C5.43823 1.72222 4.88197 1.83287 4.36297 2.04785C3.84396 2.26283 3.37238 2.57793 2.97515 2.97515C2.57793 3.37238 2.26283 3.84396 2.04785 4.36297C1.83287 4.88197 1.72222 5.43823 1.72222 6C1.72222 6.56177 1.83287 7.11803 2.04785 7.63704C2.26283 8.15604 2.57793 8.62762 2.97515 9.02485C3.37238 9.42207 3.84396 9.73717 4.36297 9.95215C4.88197 10.1671 5.43823 10.2778 6 10.2778C7.13454 10.2778 8.22261 9.82708 9.02485 9.02485C9.82708 8.22261 10.2778 7.13454 10.2778 6H11.5C11.5 7.45869 10.9205 8.85764 9.88909 9.88909C8.85764 10.9205 7.45869 11.5 6 11.5C5.27773 11.5 4.56253 11.3577 3.89524 11.0813C3.22795 10.8049 2.62163 10.3998 2.11091 9.88909C1.60019 9.37837 1.19506 8.77205 0.918663 8.10476C0.642262 7.43747 0.5 6.72227 0.5 6C0.5 5.27773 0.642262 4.56253 0.918663 3.89524C1.19506 3.22795 1.60019 2.62163 2.11091 2.11091C2.62163 1.60019 3.22795 1.19506 3.89524 0.918663Z" fill="#232527"/>
</svg>
