<svg width="17" height="17" viewBox="0 0 17 17" fill="none" xmlns="http://www.w3.org/2000/svg">
<path fill-rule="evenodd" clip-rule="evenodd" d="M1.1665 1.83317C1.1665 1.46498 1.46498 1.1665 1.83317 1.1665H5.83317V2.49984H2.49984V5.83317H1.1665V1.83317ZM14.4998 2.49984H11.1665V1.1665H15.1665C15.5347 1.1665 15.8332 1.46498 15.8332 1.83317V5.83317H14.4998V2.49984ZM2.49984 14.4998V11.1665H1.1665V15.1665C1.1665 15.5347 1.46498 15.8332 1.83317 15.8332H5.83317V14.4998H2.49984ZM14.4998 14.4998V11.1665H15.8332V15.1665C15.8332 15.5347 15.5347 15.8332 15.1665 15.8332H11.1665V14.4998H14.4998Z" fill="#666666"/>
<path fill-rule="evenodd" clip-rule="evenodd" d="M13.8332 9.16634H3.1665V7.83301H13.8332V9.16634Z" fill="#666666"/>
</svg>
