<svg width="12" height="12" viewBox="0 0 12 12" fill="none" xmlns="http://www.w3.org/2000/svg">
<path d="M9.66738 6C9.66738 4.47461 8.73496 3.16836 7.41152 2.61621L7.05918 3.4627C8.05176 3.87734 8.75 4.85703 8.75 6C8.75 7.14512 8.05176 8.12266 7.05703 8.5373L7.40938 9.38379C8.73496 8.83164 9.66738 7.52539 9.66738 6ZM7.83262 6C7.83262 5.2373 7.36641 4.58418 6.70469 4.30918L6.35234 5.15566C6.6832 5.29316 6.91523 5.61973 6.91523 6.00215C6.91523 6.38242 6.6832 6.70898 6.35234 6.84863L6.70469 7.69512C7.36641 7.41582 7.83262 6.7627 7.83262 6ZM8.11621 0.923242L7.76172 1.76973C9.41816 2.45937 10.5826 4.09219 10.5826 6C10.5826 7.90566 9.41816 9.54062 7.76172 10.2303L8.11406 11.0768C10.1035 10.2475 11.5 8.28809 11.5 6C11.5 3.71191 10.1035 1.75254 8.11621 0.923242ZM0.5 3.70762V8.29023H2.33262L5.54238 11.5V0.5L2.33262 3.70762H0.5Z" fill="#232527"/>
</svg>
