<svg width="31" height="30" viewBox="0 0 31 30" fill="none" xmlns="http://www.w3.org/2000/svg">
<path d="M25.7002 0.209473H5.7002C2.9427 0.209473 0.700195 2.45197 0.700195 5.20947V20.2095C0.700195 22.967 2.9427 25.2095 5.7002 25.2095H9.35394L14.0389 29.1545C14.5164 29.5795 15.1164 29.7907 15.7114 29.7907C16.2952 29.7907 16.8752 29.587 17.3264 29.1845L22.1352 25.2095H25.7002C28.4577 25.2095 30.7002 22.967 30.7002 20.2095V5.20947C30.7002 2.45197 28.4577 0.209473 25.7002 0.209473Z" fill="black"/>
<path d="M11.2002 13.3913L14.3113 16.5024C14.7018 16.8929 15.335 16.8929 15.7255 16.5024L21.0184 11.2095" stroke="white" stroke-width="1.5" stroke-linecap="round" stroke-linejoin="round"/>
</svg>
