<svg width="27" height="26" viewBox="0 0 27 26" fill="none" xmlns="http://www.w3.org/2000/svg">
<g clip-path="url(#clip0_22_5496)">
<path d="M25.5102 18.2106L23.1348 15.8351C22.6251 15.3255 21.9474 15.0448 21.2266 15.0448C20.5058 15.0448 19.8281 15.3254 19.3185 15.8351L17.3181 17.8355C16.8933 18.2604 16.3994 18.467 15.8083 18.467C14.4902 18.467 12.7112 17.414 10.7989 15.5017C9.27227 13.9751 8.3216 12.593 7.97339 11.394C7.68262 10.393 7.84344 9.60416 8.46511 8.98249L10.4655 6.98212C10.9752 6.47243 11.2559 5.7948 11.2559 5.07396C11.2559 4.35317 10.9752 3.6755 10.4655 3.16586L8.09004 0.790359C7.58029 0.280668 6.90262 0 6.18183 0C5.46104 0 4.78341 0.280668 4.27372 0.790359L2.2733 2.79084C0.390583 4.6735 -0.168265 7.5302 0.69979 10.8347C1.51178 13.9257 3.50627 17.1752 6.31584 19.9848C10.0823 23.7513 14.5903 26 18.3749 26C20.4436 26 22.2193 25.3179 23.5098 24.0273L25.5102 22.0269C26.0193 21.5178 26.2997 20.8402 26.2997 20.1188C26.2997 19.3974 26.0193 18.7197 25.5102 18.2106Z" fill="black"/>
<path d="M21.1519 2.71141C21.0032 2.56268 20.8083 2.48828 20.6133 2.48828C20.4184 2.48828 20.2234 2.56263 20.0747 2.71141L15.1289 7.65715L13.8394 6.36766C13.6216 6.14981 13.2939 6.08471 13.0093 6.20252C12.7246 6.32044 12.539 6.59821 12.539 6.90625L12.539 13C12.539 13.4207 12.8801 13.7617 13.3008 13.7617L19.3945 13.7617C19.7026 13.7617 19.9804 13.5761 20.0982 13.2915C20.2161 13.0069 20.1509 12.6792 19.9331 12.4614L18.6437 11.1719L23.5894 6.22609C23.8869 5.92861 23.8869 5.44634 23.5894 5.14886L21.1519 2.71141Z" fill="black"/>
</g>
<defs>
<clipPath id="clip0_22_5496">
<rect width="26" height="26" fill="white" transform="translate(0.299805)"/>
</clipPath>
</defs>
</svg>
