<svg width="27" height="30" viewBox="0 0 27 30" fill="none" xmlns="http://www.w3.org/2000/svg">
<path d="M5.47005 24.7527L4.11287 25.1936V23.7666H2.3551V25.1999L1.01427 24.7718L0.479492 26.4462L1.80808 26.8705L0.973134 28.0198L2.39523 29.053L3.23398 27.8986L4.07268 29.053L5.49483 28.0198L4.65608 26.8653L6.01314 26.4244L5.47005 24.7527Z" fill="black"/>
<path d="M13.028 24.7527L11.6708 25.1936V23.7666H9.91303V25.1936L8.55585 24.7527L8.0127 26.4244L9.36981 26.8653L8.53106 28.0198L9.95316 29.053L10.7919 27.8986L11.6306 29.053L13.0528 28.0198L12.214 26.8653L13.5711 26.4244L13.028 24.7527Z" fill="black"/>
<path d="M20.5866 24.7527L19.2294 25.1936V23.7666H17.4716V25.1936L16.1144 24.7527L15.5713 26.4244L16.9284 26.8653L16.0897 28.0198L17.5118 29.053L18.3505 27.8986L19.1892 29.053L20.6114 28.0198L19.7726 26.8653L21.1297 26.4244L20.5866 24.7527Z" fill="black"/>
<path d="M23.1299 25.5308H26.6454V27.2885H23.1299V25.5308Z" fill="black"/>
<path d="M0.355469 1.94678C0.355469 1.39449 0.803184 0.946777 1.35547 0.946777H25.3555C25.9078 0.946777 26.3555 1.39449 26.3555 1.94678V3.46233C26.3555 4.01461 25.9078 4.46233 25.3555 4.46233H1.35547C0.803185 4.46233 0.355469 4.01461 0.355469 3.46233V1.94678Z" fill="black"/>
<path d="M26.3555 6.4624C26.3555 5.91012 25.9078 5.4624 25.3555 5.4624H1.35547C0.803185 5.4624 0.355469 5.91012 0.355469 6.4624V18.4624C0.355469 19.0147 0.803184 19.4624 1.35547 19.4624H25.3555C25.9078 19.4624 26.3555 19.0147 26.3555 18.4624V6.4624ZM22.8888 12.4624C22.8888 13.0147 22.4411 13.4624 21.8888 13.4624H18.6888C18.1365 13.4624 17.6888 13.0147 17.6888 12.4624V12.4624C17.6888 11.9101 18.1365 11.4624 18.6888 11.4624H21.8888C22.4411 11.4624 22.8888 11.9101 22.8888 12.4624V12.4624Z" fill="black"/>
</svg>
