<svg width="27" height="30" viewBox="0 0 27 30" fill="none" xmlns="http://www.w3.org/2000/svg">
<path d="M5.40755 25.5212L4.05037 25.9622V24.5352H2.2926V25.9685L0.951766 25.5403L0.416992 27.2148L1.74558 27.6391L0.910634 28.7883L2.33273 29.8215L3.17148 28.6672L4.01018 29.8215L5.43233 28.7883L4.59358 27.6339L5.95064 27.1929L5.40755 25.5212Z" fill="black"/>
<path d="M12.966 25.5212L11.6088 25.9622V24.5352H9.85101V25.9622L8.49384 25.5212L7.95068 27.1929L9.3078 27.6339L8.46905 28.7883L9.89115 29.8215L10.7299 28.6672L11.5686 29.8215L12.9908 28.7883L12.152 27.6339L13.5091 27.1929L12.966 25.5212Z" fill="black"/>
<path d="M20.5241 25.5212L19.1669 25.9622V24.5352H17.4091V25.9622L16.0519 25.5212L15.5088 27.1929L16.8659 27.6339L16.0272 28.7883L17.4493 29.8215L18.288 28.6672L19.1267 29.8215L20.5489 28.7883L19.7101 27.6339L21.0672 27.1929L20.5241 25.5212Z" fill="black"/>
<path d="M23.0674 26.2993H26.5829V28.0571H23.0674V26.2993Z" fill="black"/>
<path fill-rule="evenodd" clip-rule="evenodd" d="M19.7627 1.84608C17.5579 0.368635 15.1358 -0.0672372 13.0416 0.0167538C10.966 0.0999991 9.14014 0.697144 8.09452 1.37798C7.73152 1.61434 7.62885 2.10022 7.86521 2.46322C8.10157 2.82622 8.58745 2.92889 8.95046 2.69253C9.71246 2.19636 11.2496 1.65854 13.1045 1.58415C14.9408 1.5105 17.0167 1.8943 18.8895 3.14922C19.2494 3.39035 19.7366 3.29411 19.9777 2.93426C20.2188 2.5744 20.1226 2.08721 19.7627 1.84608ZM23.2937 12.4102C22.0426 5.21597 16.9746 3.2934 14.4527 3.09118C14.021 3.05656 13.6429 3.37852 13.6082 3.81031C13.5736 4.24209 13.8956 4.62019 14.3274 4.65482C15.3128 4.73384 16.8928 5.15593 18.3627 6.34784C19.8289 7.53684 21.1954 9.49973 21.7483 12.679C21.8225 13.1057 22.2286 13.3915 22.6554 13.3173C23.0822 13.2431 23.368 12.837 23.2937 12.4102ZM11.1359 3.41529C7.81263 4.85767 6.0563 7.2477 5.20424 9.57506C4.36242 11.8745 4.40068 14.1125 4.6422 15.344C4.72557 15.7691 5.13774 16.0461 5.56282 15.9628C5.98789 15.8794 6.2649 15.4672 6.18153 15.0422C5.98947 14.0628 5.94366 12.1182 6.67728 10.1143C7.40065 8.13851 8.87926 6.10476 11.7605 4.85425C12.1578 4.68179 12.3402 4.21986 12.1677 3.8225C11.9952 3.42514 11.5333 3.24282 11.1359 3.41529ZM10.6918 6.89125C7.18209 8.93668 6.19192 13.8519 8.71019 18.6675C8.91092 19.0513 9.38482 19.1998 9.76867 18.9991C10.1525 18.7983 10.301 18.3244 10.1002 17.9406C7.82692 13.5933 8.93687 9.72962 11.4817 8.24654C13.8856 6.84551 16.4797 7.88592 17.9133 10.0741C18.1507 10.4364 18.6369 10.5377 18.9992 10.3003C19.3616 10.0629 19.4628 9.57678 19.2255 9.21445C17.4651 6.52764 14.0061 4.95968 10.6918 6.89125ZM7.36503 3.05339C7.09141 2.71758 6.59737 2.66716 6.26156 2.94079C5.24199 3.77155 4.35476 5.09213 3.92808 5.8572C3.71709 6.23552 3.85274 6.71324 4.23106 6.92423C4.60938 7.13521 5.0871 6.99956 5.29808 6.62124C5.68415 5.92899 6.456 4.80581 7.25243 4.15686C7.58824 3.88324 7.63866 3.3892 7.36503 3.05339ZM19.4021 11.7239C18.9719 11.7748 18.6644 12.1648 18.7153 12.595C18.8786 13.9746 19.7419 15.5049 21.0408 16.3541C21.4033 16.5912 21.8894 16.4894 22.1265 16.1269C22.3635 15.7643 22.2618 15.2782 21.8992 15.0412C21.0121 14.4612 20.3851 13.3572 20.2731 12.4106C20.2222 11.9805 19.8322 11.673 19.4021 11.7239ZM13.7625 12.2662C13.3299 12.2901 12.9987 12.6601 13.0226 13.0926C13.1289 15.0156 13.969 17.5139 15.6305 19.3732C15.9192 19.6962 16.415 19.7241 16.738 19.4354C17.061 19.1468 17.0888 18.651 16.8002 18.328C15.4016 16.7629 14.6777 14.6144 14.5889 13.0061C14.565 12.5736 14.195 12.2423 13.7625 12.2662ZM14.897 9.23748C13.9633 8.98136 13.0328 9.13315 12.5425 9.34402C11.5248 9.78178 10.9132 10.5735 10.6052 11.5034C10.3062 12.4062 10.2911 13.4363 10.4123 14.4362C10.6549 16.4376 11.476 18.5658 12.1509 19.9158C12.3447 20.3032 12.8158 20.4602 13.2032 20.2665C13.5907 20.0728 13.7477 19.6017 13.554 19.2142C12.9258 17.9578 12.183 16.0084 11.9695 14.2474C11.8627 13.3662 11.8965 12.594 12.0943 11.9965C12.2831 11.4265 12.6162 11.02 13.1624 10.785L13.1628 10.7848C13.3456 10.7064 13.9112 10.5937 14.482 10.7503C14.9821 10.8874 15.5141 11.2342 15.7893 12.1437C15.9964 13.1985 16.24 14.3753 16.6918 15.4371C17.1551 16.5257 17.8579 17.5454 19.0133 18.2236C19.3869 18.4429 19.8675 18.3178 20.0867 17.9442C20.306 17.5706 20.1809 17.09 19.8073 16.8708C19.029 16.4139 18.5127 15.71 18.1352 14.8229C17.7516 13.9213 17.5332 12.8852 17.3214 11.8053L17.3146 11.7706L17.3047 11.7366C16.8708 10.2488 15.8961 9.51155 14.897 9.23748Z" fill="black"/>
</svg>
