<svg width="39" height="38" viewBox="0 0 39 38" fill="none" xmlns="http://www.w3.org/2000/svg">
<path d="M35.2067 13.1535V7.85677C35.2067 4.06992 32.0778 1 28.2202 1C24.3622 1 21.2335 4.06992 21.2335 7.85677V13.1535L19.4329 16.8766C19.1618 17.4273 19.4663 17.9127 20.0894 17.9127H25.1372C25.1369 17.9127 25.136 17.9319 25.136 17.9475C25.136 19.6366 26.5308 21 28.2516 21C29.9724 21 31.3673 19.6395 31.3673 17.9505C31.3673 17.9349 31.3663 17.9128 31.366 17.9128H36.4136C37.0367 17.9128 37.3098 17.4275 37.0387 16.8767L35.2067 13.1535Z" fill="black"/>
<path d="M25.5506 9.09473H11.5134C9.57049 9.09473 8 10.6652 8 12.6081V34.9997H9.61906V12.6081C9.61906 11.5719 10.461 10.7138 11.5134 10.7138H13.6667C13.7477 11.2643 14.2172 11.6852 14.7839 11.6852H22.2801C22.863 11.6852 23.3163 11.2643 23.3973 10.7138H25.5506C26.5868 10.7138 27.4288 11.5557 27.4288 12.5919V34.9997H29.0478V12.5919C29.0478 10.6652 27.4773 9.09473 25.5506 9.09473Z" fill="black"/>
</svg>
