<svg width="36" height="16" viewBox="0 0 36 16" fill="none" xmlns="http://www.w3.org/2000/svg">
<path d="M26.6891 13.8757C26.6733 13.8041 26.6287 13.6768 26.5473 13.5813C26.5473 13.5813 26.4239 13.4036 26.2297 13.3506C26.0748 13.3081 25.8412 13.2869 25.6627 13.4991C25.6627 13.4991 24.7176 14.5971 22.405 14.6448H22.4023H22.3735H22.1503H22.1477H22.1451H22.1425H22.1398H21.9141H21.8852C19.5725 14.5971 18.6275 13.4991 18.6275 13.4991C18.449 13.2869 18.2154 13.3081 18.0605 13.3506C17.8663 13.4036 17.7429 13.5813 17.7429 13.5813C17.6615 13.6768 17.6169 13.8041 17.6011 13.8757C17.462 14.5414 17.9739 14.8543 17.9739 14.8543C17.9739 14.8543 19.5043 15.9496 21.8878 16H21.9141H22.1398H22.3682H22.3708H22.3971C24.778 15.9523 26.3111 14.8543 26.3111 14.8543C26.3111 14.8543 26.8282 14.5414 26.6891 13.8757Z" fill="white"/>
<path d="M3.91133 11.6718C4.63847 11.6108 5.23174 11.3695 5.678 10.9558C6.26601 10.4227 6.56526 9.64033 6.56526 8.62989C6.56526 7.76001 6.22138 7.03599 5.54412 6.47905C4.91936 5.95129 4.17121 5.68608 3.31807 5.68608H0.968646C0.661515 5.68608 0.417383 5.78421 0.241505 5.97516L0.231004 5.98577C0.078751 6.16876 0 6.39949 0 6.67796V15.5996H1.83491V12.128L6.20038 15.6155L6.92227 13.995L3.91133 11.6718ZM3.27869 10.1548H2.05542C1.95042 10.1548 1.88742 10.1469 1.85067 10.1389C1.84542 10.1018 1.83754 10.0381 1.83754 9.93471V7.60088C1.83754 7.5001 1.84279 7.43645 1.84804 7.39402C1.88742 7.38872 1.95304 7.38076 2.05279 7.38076H3.26032C3.70395 7.38076 4.05309 7.51071 4.32609 7.77857L4.33397 7.78652C4.5991 8.03317 4.73035 8.33551 4.73035 8.70945C4.73035 9.23191 4.61747 9.60585 4.39434 9.82597C4.18434 10.0461 3.80633 10.1548 3.27869 10.1548Z" fill="white"/>
<path d="M13.4164 6.54003L13.4112 6.52676C13.2904 6.25095 13.1644 6.04939 13.0227 5.90618L13.0148 5.89822C12.8127 5.70992 12.5659 5.6118 12.2772 5.6118C11.9753 5.6118 11.7154 5.70462 11.5054 5.89027L11.5001 5.89558C11.34 6.04409 11.2114 6.25626 11.109 6.54268L7.59668 15.5942H9.52872L10.1876 13.751L12.264 8.54235L14.3221 13.751L14.9836 15.5942H16.913L13.4164 6.54003Z" fill="white"/>
<path d="M34.1807 5.6834V12.0802L29.9176 6.38356C29.7286 6.09713 29.5737 5.91413 29.4293 5.8054C29.2613 5.6781 29.0592 5.6118 28.8308 5.6118C28.4554 5.6118 28.2533 5.77623 28.1535 5.91149C28.0249 6.08387 27.9619 6.32786 27.9619 6.65672V15.5942H29.7968V9.06216L34.0468 14.7694C34.2253 15.0346 34.3723 15.207 34.5062 15.3052C34.6847 15.4431 34.8999 15.512 35.1467 15.512C35.4958 15.512 35.698 15.3449 35.8056 15.2044C35.9368 15.0399 35.9998 14.8066 35.9998 14.4936V5.6834H34.1807Z" fill="white"/>
<path d="M27.7361 5.2246L27.7335 5.20604C27.5733 4.06299 26.5732 3.65987 25.8487 3.58031C25.7095 0.514504 24.061 0.116693 23.9875 0.10078L23.9744 0.0981257C23.5964 0.0318237 23.1527 0 22.6566 0C21.6407 0 20.7403 0.135253 20.6773 0.145861C19.6089 0.294378 19.3937 1.7265 19.349 2.35239C19.0183 2.36035 18.5038 2.37361 18.4224 2.37626H18.404C17.7924 2.4293 17.5089 2.76082 17.4432 2.85099C16.9839 3.39732 17.1965 4.09481 17.2044 4.12664L17.207 4.13725C17.3409 4.51649 17.5981 4.89574 17.9709 5.27764C17.7136 5.95392 17.5824 6.70446 17.5824 7.52661C17.5824 8.99851 17.9893 10.3723 18.6954 11.2952C19.5039 12.3428 20.7272 12.9209 22.1395 12.9209C23.5544 12.9209 24.7776 12.3428 25.5835 11.2952C26.3002 10.3723 26.7123 8.99851 26.7123 7.52661C26.7123 7.39135 26.7071 7.25874 26.6992 7.12614C27.7991 6.2536 27.7387 5.27764 27.7361 5.2246ZM24.2185 10.1654C23.7854 10.8629 23.0477 11.2475 22.1447 11.2475C21.2443 11.2475 20.5119 10.8629 20.0867 10.1654C19.7139 9.5634 19.4908 8.57683 19.4908 7.52395C19.4908 7.15531 19.5197 6.80789 19.5774 6.48434C19.7165 6.56921 19.8609 6.65142 20.0132 6.73628C21.1393 7.35952 22.1657 7.73612 22.2077 7.75203L22.2156 7.75468C22.7879 7.94563 23.3942 8.04376 24.0138 8.04376C24.3366 8.04376 24.6096 8.01724 24.8118 7.98807C24.7566 8.8606 24.544 9.65357 24.2185 10.1654ZM26.6283 6.41273C26.5469 6.50025 26.4498 6.58777 26.3369 6.67529C26.2477 6.7469 26.1453 6.8185 26.0324 6.88745C25.8697 6.99088 25.6833 7.08901 25.4707 7.18449C25.3709 7.22957 25.2607 7.272 25.1478 7.31444C25.111 7.3277 25.0769 7.34096 25.0402 7.35422C25.0165 7.35953 24.9404 7.37808 24.8249 7.39665C24.6438 7.42582 24.3603 7.46295 24.0138 7.46295C23.4546 7.46295 22.9112 7.37544 22.3993 7.20571C22.3337 7.18184 21.3441 6.81055 20.2888 6.22709C20.0893 6.1157 19.9003 6.00697 19.7244 5.89558C19.6273 5.83458 19.5328 5.77358 19.4435 5.71523C19.349 5.65158 19.2545 5.58793 19.1679 5.52428C19.0104 5.41024 18.8634 5.29621 18.7295 5.18217C18.6403 5.10526 18.5563 5.03099 18.4775 4.95408C18.3909 4.87187 18.3121 4.787 18.2386 4.70479C18.0103 4.44754 17.8501 4.19294 17.7609 3.94894C17.7477 3.90386 17.6506 3.50605 17.8948 3.22228L17.9026 3.21432L17.9131 3.19575C17.9341 3.16923 18.0864 2.99155 18.4513 2.95707C18.8975 2.94646 19.5722 2.9279 19.6299 2.9279H19.9134H19.9187V2.92524L19.916 2.63617C19.916 2.6176 19.9265 0.835406 20.7587 0.721366H20.7639C20.7718 0.718714 21.6722 0.583461 22.6566 0.583461C23.1186 0.583461 23.5255 0.61263 23.8694 0.670976C23.9035 0.681584 24.2028 0.774404 24.5125 1.14039C24.8328 1.51699 25.2134 2.25161 25.2738 3.62009C25.2764 3.69965 25.279 3.77921 25.2817 3.86143L25.2869 4.12398V4.1505H25.3079L25.573 4.14785H25.5757C25.5888 4.14785 25.6413 4.14786 25.72 4.15581C25.8723 4.16907 26.1243 4.2062 26.3763 4.30963C26.8357 4.50058 27.0929 4.81617 27.1612 5.27498C27.1612 5.31742 27.1586 5.60915 26.9538 5.97779C26.8803 6.10774 26.7753 6.25626 26.6283 6.41273Z" fill="white"/>
<path d="M19.9474 3.17455L19.7217 3.1878C21.0972 4.80822 22.7851 5.14504 22.7851 5.14504C23.0739 5.11321 23.2603 4.81087 23.2603 4.81087C20.7218 4.18498 19.9474 3.17455 19.9474 3.17455Z" fill="white"/>
<path d="M24.9717 4.77907C25.0294 4.83212 25.1449 4.84007 25.1449 4.84007C25.4914 4.71808 25.5177 4.29905 25.5177 4.29905C25.4363 4.29109 25.3366 4.29109 25.3366 4.29109C25.2709 4.61995 24.9717 4.77907 24.9717 4.77907Z" fill="white"/>
<path d="M23.6961 0.859248C23.0319 0.702775 21.1655 0.883115 21.1655 0.883115C23.8562 1.20667 24.1082 2.36298 24.1082 2.36298C24.3366 1.40558 23.6961 0.859248 23.6961 0.859248Z" fill="white"/>
</svg>
