<svg width="36" height="16" viewBox="0 0 36 16" fill="none" xmlns="http://www.w3.org/2000/svg">
<path d="M26.6889 13.8757C26.6732 13.8041 26.6285 13.6768 26.5472 13.5813C26.5472 13.5813 26.4238 13.4036 26.2295 13.3506C26.0746 13.3081 25.841 13.2869 25.6625 13.4991C25.6625 13.4991 24.7175 14.5971 22.4048 14.6448H22.4022H22.3733H22.1502H22.1476H22.1449H22.1423H22.1397H21.9139H21.8851C19.5724 14.5971 18.6274 13.4991 18.6274 13.4991C18.4489 13.2869 18.2152 13.3081 18.0604 13.3506C17.8661 13.4036 17.7427 13.5813 17.7427 13.5813C17.6613 13.6768 17.6167 13.8041 17.601 13.8757C17.4618 14.5414 17.9737 14.8543 17.9737 14.8543C17.9737 14.8543 19.5041 15.9496 21.8877 16H21.9139H22.1397H22.3681H22.3707H22.3969C24.7779 15.9523 26.3109 14.8543 26.3109 14.8543C26.3109 14.8543 26.828 14.5414 26.6889 13.8757Z" fill="white"/>
<path d="M3.91124 11.6718C4.63838 11.6108 5.23164 11.3695 5.6779 10.9558C6.26592 10.4227 6.56517 9.64033 6.56517 8.62989C6.56517 7.76001 6.22129 7.03599 5.54403 6.47905C4.91926 5.95129 4.17112 5.68608 3.31798 5.68608H0.968555C0.661423 5.68608 0.417292 5.78421 0.241413 5.97516L0.230913 5.98577C0.0786594 6.16876 -9.15527e-05 6.39949 -9.15527e-05 6.67796V15.5996H1.83482V12.128L6.20029 15.6155L6.92218 13.995L3.91124 11.6718ZM3.2786 10.1548H2.05533C1.95033 10.1548 1.88732 10.1469 1.85057 10.1389C1.84532 10.1018 1.83745 10.0381 1.83745 9.93471V7.60088C1.83745 7.5001 1.8427 7.43645 1.84795 7.39402C1.88732 7.38872 1.95295 7.38076 2.0527 7.38076H3.26023C3.70386 7.38076 4.05299 7.51071 4.326 7.77857L4.33388 7.78652C4.59901 8.03317 4.73026 8.33551 4.73026 8.70945C4.73026 9.23191 4.61738 9.60585 4.39425 9.82597C4.18425 10.0461 3.80624 10.1548 3.2786 10.1548Z" fill="white"/>
<path d="M13.4166 6.54003L13.4113 6.52676C13.2906 6.25095 13.1646 6.04939 13.0228 5.90618L13.0149 5.89822C12.8128 5.70992 12.5661 5.6118 12.2773 5.6118C11.9754 5.6118 11.7155 5.70462 11.5055 5.89027L11.5003 5.89558C11.3402 6.04409 11.2115 6.25626 11.1092 6.54268L7.59683 15.5942H9.52887L10.1878 13.751L12.2642 8.54235L14.3222 13.751L14.9837 15.5942H16.9132L13.4166 6.54003Z" fill="white"/>
<path d="M34.1809 5.6834V12.0802L29.9178 6.38356C29.7288 6.09713 29.5739 5.91413 29.4295 5.8054C29.2615 5.6781 29.0594 5.6118 28.831 5.6118C28.4556 5.6118 28.2535 5.77623 28.1537 5.91149C28.0251 6.08387 27.9621 6.32786 27.9621 6.65672V15.5942H29.797V9.06216L34.047 14.7694C34.2255 15.0346 34.3725 15.207 34.5064 15.3052C34.6849 15.4431 34.9001 15.512 35.1469 15.512C35.496 15.512 35.6981 15.3449 35.8058 15.2044C35.937 15.0399 36 14.8066 36 14.4936V5.6834H34.1809Z" fill="white"/>
<path d="M27.7362 5.2246L27.7336 5.20604C27.5735 4.06299 26.5733 3.65987 25.8488 3.58031C25.7097 0.514504 24.0611 0.116693 23.9876 0.10078L23.9745 0.0981257C23.5965 0.0318237 23.1529 0 22.6567 0C21.6408 0 20.7404 0.135253 20.6774 0.145861C19.609 0.294378 19.3938 1.7265 19.3492 2.35239C19.0184 2.36035 18.5039 2.37361 18.4225 2.37626H18.4041C17.7925 2.4293 17.509 2.76082 17.4434 2.85099C16.984 3.39732 17.1966 4.09481 17.2045 4.12664L17.2071 4.13725C17.341 4.51649 17.5982 4.89574 17.971 5.27764C17.7137 5.95392 17.5825 6.70446 17.5825 7.52661C17.5825 8.99851 17.9894 10.3723 18.6955 11.2952C19.504 12.3428 20.7273 12.9209 22.1396 12.9209C23.5545 12.9209 24.7778 12.3428 25.5837 11.2952C26.3003 10.3723 26.7124 8.99851 26.7124 7.52661C26.7124 7.39135 26.7072 7.25874 26.6993 7.12614C27.7992 6.2536 27.7388 5.27764 27.7362 5.2246ZM24.2186 10.1654C23.7855 10.8629 23.0479 11.2475 22.1448 11.2475C21.2444 11.2475 20.5121 10.8629 20.0868 10.1654C19.714 9.5634 19.4909 8.57683 19.4909 7.52395C19.4909 7.15531 19.5198 6.80789 19.5775 6.48434C19.7167 6.56921 19.861 6.65142 20.0133 6.73628C21.1394 7.35952 22.1658 7.73612 22.2078 7.75203L22.2157 7.75468C22.788 7.94563 23.3944 8.04376 24.0139 8.04376C24.3368 8.04376 24.6098 8.01724 24.8119 7.98807C24.7568 8.8606 24.5441 9.65357 24.2186 10.1654ZM26.6284 6.41273C26.5471 6.50025 26.4499 6.58777 26.3371 6.67529C26.2478 6.7469 26.1454 6.8185 26.0325 6.88745C25.8698 6.99088 25.6834 7.08901 25.4708 7.18449C25.371 7.22957 25.2608 7.272 25.1479 7.31444C25.1112 7.3277 25.077 7.34096 25.0403 7.35422C25.0166 7.35953 24.9405 7.37808 24.825 7.39665C24.6439 7.42582 24.3604 7.46295 24.0139 7.46295C23.4547 7.46295 22.9114 7.37544 22.3995 7.20571C22.3338 7.18184 21.3442 6.81055 20.2889 6.22709C20.0894 6.1157 19.9004 6.00697 19.7245 5.89558C19.6274 5.83458 19.5329 5.77358 19.4437 5.71523C19.3492 5.65158 19.2547 5.58793 19.168 5.52428C19.0105 5.41024 18.8635 5.29621 18.7296 5.18217C18.6404 5.10526 18.5564 5.03099 18.4776 4.95408C18.391 4.87187 18.3123 4.787 18.2388 4.70479C18.0104 4.44754 17.8502 4.19294 17.761 3.94894C17.7479 3.90386 17.6507 3.50605 17.8949 3.22228L17.9027 3.21432L17.9133 3.19575C17.9343 3.16923 18.0865 2.99155 18.4514 2.95707C18.8976 2.94646 19.5723 2.9279 19.63 2.9279H19.9135H19.9188V2.92524L19.9162 2.63617C19.9162 2.6176 19.9267 0.835406 20.7588 0.721366H20.7641C20.7719 0.718714 21.6723 0.583461 22.6567 0.583461C23.1187 0.583461 23.5256 0.61263 23.8695 0.670976C23.9036 0.681584 24.2029 0.774404 24.5126 1.14039C24.8329 1.51699 25.2135 2.25161 25.2739 3.62009C25.2765 3.69965 25.2792 3.77921 25.2818 3.86143L25.287 4.12398V4.1505H25.308L25.5732 4.14785H25.5758C25.5889 4.14785 25.6414 4.14786 25.7202 4.15581C25.8724 4.16907 26.1244 4.2062 26.3764 4.30963C26.8358 4.50058 27.0931 4.81617 27.1613 5.27498C27.1613 5.31742 27.1587 5.60915 26.9539 5.97779C26.8804 6.10774 26.7754 6.25626 26.6284 6.41273Z" fill="white"/>
<path d="M19.9476 3.17455L19.7219 3.1878C21.0974 4.80822 22.7853 5.14504 22.7853 5.14504C23.0741 5.11321 23.2604 4.81087 23.2604 4.81087C20.722 4.18498 19.9476 3.17455 19.9476 3.17455Z" fill="white"/>
<path d="M24.972 4.77907C25.0298 4.83212 25.1453 4.84007 25.1453 4.84007C25.4918 4.71808 25.518 4.29905 25.518 4.29905C25.4367 4.29109 25.3369 4.29109 25.3369 4.29109C25.2713 4.61995 24.972 4.77907 24.972 4.77907Z" fill="white"/>
<path d="M23.6961 0.859248C23.032 0.702775 21.1656 0.883115 21.1656 0.883115C23.8562 1.20667 24.1082 2.36298 24.1082 2.36298C24.3366 1.40558 23.6961 0.859248 23.6961 0.859248Z" fill="white"/>
</svg>
