<svg width="58" height="32" viewBox="0 0 58 32" fill="none" xmlns="http://www.w3.org/2000/svg">
<path d="M38.6474 22.6093C38.6474 22.539 38.5786 22.3984 38.4754 22.2929C38.4754 22.2929 38.3379 22.082 38.1315 22.0468C37.9595 22.0117 37.6844 21.9765 37.5124 22.2226C37.5124 22.2226 36.4462 23.4531 33.9011 23.5234H33.8667H33.6259H33.3852H33.3508C30.7712 23.4531 29.7394 22.2226 29.7394 22.2226C29.533 21.9765 29.2923 22.0117 29.1203 22.0468C28.914 22.1171 28.7764 22.2929 28.7764 22.2929C28.6732 22.3984 28.6388 22.539 28.6044 22.6093C28.4324 23.3476 29.0171 23.6992 29.0171 23.6992C29.0171 23.6992 30.668 24.9296 33.3164 25H33.3508H33.5915H33.8323H33.8667C36.5494 24.9296 38.2347 23.6992 38.2347 23.6992C38.2347 23.6992 38.8194 23.3476 38.6474 22.6093Z" fill="#FF8400"/>
<path d="M13.3336 20.1133C14.1247 20.043 14.8126 19.7617 15.2941 19.3047C15.9476 18.707 16.2915 17.8281 16.2915 16.7031C16.2915 15.7188 15.9132 14.9102 15.1565 14.2773C14.4686 13.6797 13.6432 13.3984 12.6801 13.3984H10.0662C9.72227 13.3984 9.44712 13.5039 9.27515 13.7148C9.06879 13.9258 9 14.207 9 14.4883V24.5078H11.0292V20.6406L15.8788 24.543L16.6698 22.7148L13.3336 20.1133ZM12.6457 18.4258H11.27C11.1668 18.4258 11.098 18.4258 11.0292 18.4258C11.0292 18.3906 11.0292 18.3203 11.0292 18.1797V15.543C11.0292 15.4375 11.0292 15.3672 11.0292 15.2969C11.0636 15.2969 11.1324 15.2969 11.27 15.2969H12.6114C13.0929 15.2969 13.5056 15.4375 13.7807 15.7539C14.0903 16.0352 14.2279 16.3867 14.2279 16.8086C14.2279 17.4063 14.0903 17.8281 13.8495 18.0742C13.6432 18.2852 13.2304 18.4258 12.6457 18.4258Z" fill="#FF8400"/>
<path d="M23.8926 14.3477C23.755 14.0312 23.6174 13.7852 23.4454 13.6445C23.2391 13.4336 22.9639 13.3281 22.62 13.3281C22.276 13.3281 22.0009 13.4336 21.7601 13.6445C21.5882 13.8203 21.4506 14.0664 21.313 14.3828L17.4265 24.5781H19.5589L20.2812 22.5039L22.5856 16.6328L24.9244 22.4688L25.6466 24.543H27.7791L23.8926 14.3477Z" fill="#FF8400"/>
<path d="M46.9713 13.3984V20.6055L42.2593 14.1719C42.053 13.8555 41.881 13.6445 41.709 13.5391C41.5371 13.3984 41.2963 13.3281 41.0556 13.3281C40.6428 13.3281 40.4021 13.5039 40.2989 13.6797C40.1613 13.8906 40.0925 14.1367 40.0925 14.5234V24.5781H42.1218V17.1953L46.8337 23.5938C47.0401 23.9102 47.2121 24.0859 47.3496 24.1914C47.556 24.332 47.7967 24.4375 48.0719 24.4375C48.4502 24.4375 48.691 24.2617 48.7942 24.0859C48.9317 23.9102 49.0005 23.6289 49.0005 23.2773V13.3984H46.9713Z" fill="#FF8400"/>
<path d="M39.8164 12.8711C39.6444 11.5703 38.5094 11.1133 37.7184 11.0078C37.5808 7.5625 35.7235 7.10547 35.6547 7.10547C35.2076 7.03516 34.7261 7 34.1758 7C33.0408 7 32.0434 7.14063 31.9746 7.17578C30.7708 7.35156 30.5644 8.96875 30.4957 9.67188C30.1173 9.67188 29.567 9.70703 29.4638 9.70703H29.4295C28.7416 9.77734 28.432 10.1289 28.3632 10.2344C27.8473 10.832 28.0881 11.6406 28.0881 11.6758C28.2257 12.0977 28.5352 12.5195 28.9479 12.9414C28.6728 13.7148 28.5008 14.5586 28.5008 15.4727C28.5008 17.125 28.9479 18.6719 29.739 19.7266C30.6332 20.9219 32.009 21.5547 33.5567 21.5547C35.1388 21.5547 36.4802 20.9219 37.3744 19.7266C38.1655 18.707 38.6126 17.1602 38.6126 15.4727C38.6126 15.332 38.6126 15.1563 38.6126 15.0156C39.8852 14.0313 39.8164 12.9414 39.8164 12.8711ZM35.8955 18.4258C35.414 19.1992 34.5885 19.6563 33.5911 19.6563C32.5937 19.6563 31.7682 19.2344 31.2867 18.4258C30.874 17.7578 30.6332 16.6328 30.6332 15.4727C30.6332 15.0508 30.6676 14.6641 30.7364 14.3125C30.9084 14.418 31.046 14.4883 31.2179 14.5938C32.4561 15.2969 33.6255 15.7188 33.6599 15.7539C34.279 15.9648 34.9669 16.0703 35.6547 16.0703C35.9987 16.0703 36.3082 16.0352 36.549 16C36.5146 16.9492 36.2738 17.8633 35.8955 18.4258ZM38.5782 14.207C38.475 14.3125 38.3718 14.418 38.2687 14.4883C38.1655 14.5586 38.0623 14.6641 37.9247 14.7344C37.7528 14.8398 37.5464 14.9453 37.3056 15.0859C37.2025 15.1211 37.0649 15.1914 36.9617 15.2266C36.9273 15.2266 36.8929 15.2617 36.8585 15.2617C36.8241 15.2617 36.7553 15.2969 36.6178 15.2969C36.4114 15.332 36.1019 15.3672 35.7235 15.3672C35.1044 15.3672 34.4853 15.2617 33.935 15.0859C33.8663 15.0508 32.7657 14.6289 31.5963 13.9961C31.3899 13.8555 31.1491 13.75 30.9772 13.6094C30.874 13.5391 30.7708 13.4688 30.6676 13.3984C30.5644 13.3281 30.4613 13.2578 30.3581 13.1875C30.1861 13.0469 30.0141 12.9414 29.8766 12.8008C29.7734 12.7305 29.6702 12.625 29.6014 12.5547C29.4982 12.4492 29.4295 12.3789 29.3263 12.2734C29.0855 11.9922 28.8791 11.7109 28.8104 11.4297C28.8104 11.3945 28.6728 10.9375 28.9479 10.6211V10.5859C28.9823 10.5508 29.1543 10.3398 29.5326 10.3047C30.0141 10.3047 30.7708 10.2695 30.8396 10.2695H31.1491V9.95313C31.1491 9.91797 31.1491 7.91406 32.0778 7.80859C32.0778 7.80859 33.0752 7.66797 34.1758 7.66797C34.6917 7.66797 35.1388 7.70313 35.5172 7.77344C35.5516 7.77344 35.8955 7.87891 36.2394 8.30078C36.5834 8.72266 37.0305 9.56641 37.0993 11.0781C37.0993 11.1836 37.0993 11.2539 37.0993 11.3594V11.6406V11.6758H37.1337H37.4432C37.4432 11.6758 37.512 11.6758 37.6152 11.6758C37.7871 11.6758 38.0623 11.7461 38.3375 11.8516C38.8534 12.0625 39.1285 12.4141 39.1973 12.9414C39.1973 12.9766 39.1973 13.3281 38.9565 13.7148C38.8534 13.8555 38.7502 14.0313 38.5782 14.207Z" fill="#FF8400"/>
<path d="M31.1499 10.5508H30.9092C32.4225 12.3789 34.3142 12.7656 34.3142 12.7656C34.6237 12.7305 34.8301 12.3789 34.8301 12.3789C32.0098 11.7109 31.1499 10.5508 31.1499 10.5508Z" fill="#FF8400"/>
<path d="M36.7563 12.3789C36.8251 12.4492 36.9627 12.4492 36.9627 12.4492C37.341 12.3086 37.3754 11.8516 37.3754 11.8516C37.2723 11.8516 37.1691 11.8516 37.1691 11.8516C37.0659 12.2031 36.7563 12.3789 36.7563 12.3789Z" fill="#FF8400"/>
<path d="M35.3457 7.9491C34.6234 7.77332 32.5254 7.98425 32.5254 7.98425C35.5177 8.33582 35.7928 9.6366 35.7928 9.6366C36.0336 8.58191 35.3457 7.9491 35.3457 7.9491Z" fill="#FF8400"/>
</svg>
